# xmcd
#
# Track frame offsets: 
#        187
#        14827
#        27960
#        42380
#        58232
#        74357
#        88832
#        102030
#        118135
#
# Disc length: 1790 seconds
#
# Revision: 2
# Processed by: cddbd v1.5.2PL0 Copyright (c) Steve Scherf et al.
# Submitted via: ExactAudioCopy v0.95b4
#
DISCID=8006fc09
DTITLE=Steve Wariner - Greatest Hits
DYEAR=1987
DGENRE=Country
TTITLE0=Lonely Women Make Good Lovers
TTITLE1=By Now
TTITLE2=When We're Together
TTITLE3=All Roads Lead To You
TTITLE4=Kansas City Lights
TTITLE5=Midnight Fire
TTITLE6=Your Memory
TTITLE7=You Make It Feel So Right
TTITLE8=Why Goodbye
EXTD=
EXTT0=
EXTT1=
EXTT2=
EXTT3=
EXTT4=
EXTT5=
EXTT6=
EXTT7=
EXTT8=
PLAYORDER=
